# xmcd
#
# Track frame offsets:
#	183
#	14970
#	37015
#	55008
#	70638
#	90503
#	104008
#	124265
#	139140
#	153488
#
# Disc length: 2345 seconds
#
# Revision: 1
# Processed by: cddbd v1.4PL0 Copyright (c) Steve Scherf et al.
# Submitted via: audiograbber 1.80
#
DISCID=8c09270a
DTITLE=Yankee - Out Of The Fryin' Pan
DYEAR=1900
DGENRE=
TTITLE0=Don't You Ever Cry
TTITLE1=Even
TTITLE2=Careless
TTITLE3=You Were Gone
TTITLE4=Flyin'
TTITLE5=Ordinary Day
TTITLE6=Force Of Love
TTITLE7=Part Of It All
TTITLE8=Bound To Be
TTITLE9=Out Of The Fryin' Pan
EXTD=
EXTT0=
EXTT1=
EXTT2=
EXTT3=
EXTT4=
EXTT5=
EXTT6=
EXTT7=
EXTT8=
EXTT9=
PLAYORDER=
